<svg data-v-423bf9ae="" xmlns="http://www.w3.org/2000/svg" viewBox="0 0 582 107" class="iconLeftSlogan"><!----><!----><!----><g data-v-423bf9ae="" id="89b7ebbd-73e7-426e-a215-edf0ea85e475" fill="#242E31" transform="matrix(6.153846263885498,0,0,6.153846263885498,97.02564239501953,-6.5846171379089355)"><path d="M10.93 10.64L10.08 10.64L10.08 9.60L10.08 9.60Q9.59 9.86 8.97 10.09L8.97 10.09L8.97 10.09Q8.34 10.32 7.65 10.48L7.65 10.48L7.65 10.48Q6.95 10.64 6.22 10.73L6.22 10.73L6.22 10.73Q5.49 10.82 4.79 10.82L4.79 10.82L4.79 10.82Q3.87 10.82 3.14 10.66L3.14 10.66L3.14 10.66Q2.41 10.49 1.91 10.17L1.91 10.17L1.91 10.17Q1.40 9.84 1.13 9.36L1.13 9.36L1.13 9.36Q0.85 8.88 0.85 8.24L0.85 8.24L0.85 8.24Q0.85 7.62 1.17 7.13L1.17 7.13L1.17 7.13Q1.49 6.65 2.08 6.29L2.08 6.29L2.08 6.29Q2.67 5.93 3.50 5.68L3.50 5.68L3.50 5.68Q4.33 5.43 5.35 5.26L5.35 5.26L5.35 5.26Q6.38 5.09 7.57 4.97L7.57 4.97L7.57 4.97Q8.76 4.86 10.08 4.79L10.08 4.79L10.08 4.07L10.08 4.07Q10.08 3.63 9.92 3.29L9.92 3.29L9.92 3.29Q9.75 2.96 9.46 2.71L9.46 2.71L9.46 2.71Q9.17 2.46 8.77 2.29L8.77 2.29L8.77 2.29Q8.37 2.13 7.91 2.02L7.91 2.02L7.91 2.02Q7.45 1.92 6.94 1.88L6.94 1.88L6.94 1.88Q6.43 1.83 5.92 1.83L5.92 1.83L5.92 1.83Q5.23 1.83 4.66 1.90L4.66 1.90L4.66 1.90Q4.09 1.97 3.60 2.09L3.60 2.09L3.60 2.09Q3.11 2.21 2.66 2.37L2.66 2.37L2.66 2.37Q2.21 2.52 1.75 2.70L1.75 2.70L1.75 1.70L1.75 1.70Q2.70 1.45 3.78 1.26L3.78 1.26L3.78 1.26Q4.85 1.07 6.06 1.07L6.06 1.07L6.06 1.07Q7.09 1.07 7.98 1.25L7.98 1.25L7.98 1.25Q8.87 1.42 9.52 1.80L9.52 1.80L9.52 1.80Q10.18 2.19 10.55 2.79L10.55 2.79L10.55 2.79Q10.93 3.40 10.93 4.27L10.93 4.27L10.93 10.64ZM10.08 8.70L10.08 5.54L10.08 5.54Q7.85 5.67 6.27 5.89L6.27 5.89L6.27 5.89Q4.68 6.12 3.68 6.45L3.68 6.45L3.68 6.45Q2.67 6.77 2.20 7.21L2.20 7.21L2.20 7.21Q1.74 7.65 1.74 8.20L1.74 8.20L1.74 8.20Q1.74 8.65 1.97 9.00L1.97 9.00L1.97 9.00Q2.19 9.35 2.63 9.59L2.63 9.59L2.63 9.59Q3.06 9.82 3.67 9.94L3.67 9.94L3.67 9.94Q4.29 10.06 5.05 10.06L5.05 10.06L5.05 10.06Q5.50 10.06 5.98 10.01L5.98 10.01L5.98 10.01Q6.47 9.96 6.95 9.87L6.95 9.87L6.95 9.87Q7.42 9.78 7.89 9.65L7.89 9.65L7.89 9.65Q8.35 9.52 8.76 9.37L8.76 9.37L8.76 9.37Q9.17 9.22 9.51 9.05L9.51 9.05L9.51 9.05Q9.85 8.88 10.08 8.70L10.08 8.70ZM23.65 9.89L23.65 9.89L23.65 9.89Q23.15 10.10 22.67 10.27L22.67 10.27L22.67 10.27Q22.19 10.44 21.67 10.56L21.67 10.56L21.67 10.56Q21.15 10.68 20.58 10.75L20.58 10.75L20.58 10.75Q20.00 10.82 19.33 10.82L19.33 10.82L19.33 10.82Q18.49 10.82 17.72 10.68L17.72 10.68L17.72 10.68Q16.95 10.55 16.29 10.27L16.29 10.27L16.29 10.27Q15.63 10.00 15.09 9.59L15.09 9.59L15.09 9.59Q14.55 9.19 14.16 8.65L14.16 8.65L14.16 8.65Q13.77 8.11 13.57 7.43L13.57 7.43L13.57 7.43Q13.36 6.75 13.36 5.95L13.36 5.95L13.36 5.95Q13.36 5.14 13.57 4.46L13.57 4.46L13.57 4.46Q13.77 3.79 14.16 3.25L14.16 3.25L14.16 3.25Q14.55 2.71 15.09 2.30L15.09 2.30L15.09 2.30Q15.63 1.89 16.29 1.62L16.29 1.62L16.29 1.62Q16.95 1.35 17.72 1.21L17.72 1.21L17.72 1.21Q18.48 1.07 19.33 1.07L19.33 1.07L19.33 1.07Q20.00 1.07 20.58 1.14L20.58 1.14L20.58 1.14Q21.15 1.21 21.67 1.33L21.67 1.33L21.67 1.33Q22.19 1.46 22.67 1.62L22.67 1.62L22.67 1.62Q23.15 1.79 23.65 2.00L23.65 2.00L23.65 3.02L23.65 3.02Q23.26 2.78 22.81 2.56L22.81 2.56L22.81 2.56Q22.37 2.34 21.85 2.17L21.85 2.17L21.85 2.17Q21.33 2.01 20.75 1.91L20.75 1.91L20.75 1.91Q20.16 1.82 19.49 1.82L19.49 1.82L19.49 1.82Q18.14 1.82 17.14 2.11L17.14 2.11L17.14 2.11Q16.15 2.41 15.51 2.94L15.51 2.94L15.51 2.94Q14.86 3.48 14.55 4.24L14.55 4.24L14.55 4.24Q14.24 5.00 14.24 5.95L14.24 5.95L14.24 5.95Q14.24 6.89 14.55 7.65L14.55 7.65L14.55 7.65Q14.86 8.41 15.51 8.94L15.51 8.94L15.51 8.94Q16.15 9.48 17.14 9.77L17.14 9.77L17.14 9.77Q18.14 10.06 19.49 10.06L19.49 10.06L19.49 10.06Q20.16 10.06 20.76 9.97L20.76 9.97L20.76 9.97Q21.36 9.87 21.88 9.71L21.88 9.71L21.88 9.71Q22.40 9.54 22.84 9.33L22.84 9.33L22.84 9.33Q23.28 9.11 23.65 8.87L23.65 8.87L23.65 9.89ZM36.31 10.64L35.45 10.64L35.45 6.08L27.04 6.08L27.04 10.64L26.18 10.64L26.18 1.24L27.04 1.24L27.04 5.29L35.45 5.29L35.45 1.24L36.31 1.24L36.31 10.64ZM40.33 10.64L39.47 10.64L39.47 1.24L40.33 1.24L40.33 10.64ZM52.96 9.15L52.96 10.14L52.96 10.14Q52.38 10.32 51.89 10.45L51.89 10.45L51.89 10.45Q51.40 10.58 50.92 10.65L50.92 10.65L50.92 10.65Q50.44 10.73 49.95 10.77L49.95 10.77L49.95 10.77Q49.45 10.81 48.86 10.81L48.86 10.81L48.86 10.81Q47.48 10.81 46.36 10.47L46.36 10.47L46.36 10.47Q45.25 10.14 44.46 9.51L44.46 9.51L44.46 9.51Q43.68 8.89 43.26 8.00L43.26 8.00L43.26 8.00Q42.83 7.11 42.83 6.00L42.83 6.00L42.83 6.00Q42.83 4.93 43.24 4.03L43.24 4.03L43.24 4.03Q43.65 3.14 44.38 2.50L44.38 2.50L44.38 2.50Q45.11 1.85 46.13 1.50L46.13 1.50L46.13 1.50Q47.15 1.14 48.38 1.14L48.38 1.14L48.38 1.14Q49.66 1.14 50.65 1.48L50.65 1.48L50.65 1.48Q51.65 1.83 52.34 2.46L52.34 2.46L52.34 2.46Q53.02 3.10 53.38 4.00L53.38 4.00L53.38 4.00Q53.73 4.91 53.73 6.04L53.73 6.04L53.73 6.25L43.72 6.25L43.72 6.25Q43.79 7.13 44.15 7.83L44.15 7.83L44.15 7.83Q44.52 8.54 45.18 9.03L45.18 9.03L45.18 9.03Q45.85 9.52 46.82 9.79L46.82 9.79L46.82 9.79Q47.80 10.05 49.10 10.05L49.10 10.05L49.10 10.05Q49.65 10.05 50.22 9.97L50.22 9.97L50.22 9.97Q50.78 9.90 51.30 9.77L51.30 9.77L51.30 9.77Q51.82 9.65 52.25 9.48L52.25 9.48L52.25 9.48Q52.68 9.32 52.96 9.15L52.96 9.15ZM43.72 5.51L52.89 5.51L52.89 5.51Q52.84 4.79 52.57 4.14L52.57 4.14L52.57 4.14Q52.29 3.49 51.75 2.99L51.75 2.99L51.75 2.99Q51.21 2.49 50.37 2.19L50.37 2.19L50.37 2.19Q49.53 1.90 48.36 1.90L48.36 1.90L48.36 1.90Q47.26 1.90 46.44 2.19L46.44 2.19L46.44 2.19Q45.61 2.49 45.04 2.98L45.04 2.98L45.04 2.98Q44.46 3.48 44.13 4.13L44.13 4.13L44.13 4.13Q43.80 4.79 43.72 5.51L43.72 5.51ZM65.59 1.24L60.86 10.64L59.58 10.64L54.89 1.24L55.85 1.24L60.25 10.05L64.64 1.24L65.59 1.24ZM78.68 5.95L78.68 5.95L78.68 5.95Q78.68 7.21 78.22 8.13L78.22 8.13L78.22 8.13Q77.77 9.05 76.97 9.65L76.97 9.65L76.97 9.65Q76.17 10.25 75.08 10.53L75.08 10.53L75.08 10.53Q73.99 10.82 72.73 10.82L72.73 10.82L72.73 10.82Q71.47 10.82 70.38 10.53L70.38 10.53L70.38 10.53Q69.28 10.25 68.48 9.65L68.48 9.65L68.48 9.65Q67.67 9.05 67.21 8.13L67.21 8.13L67.21 8.13Q66.75 7.21 66.75 5.95L66.75 5.95L66.75 5.95Q66.75 5.11 66.96 4.42L66.96 4.42L66.96 4.42Q67.18 3.73 67.56 3.19L67.56 3.19L67.56 3.19Q67.94 2.65 68.49 2.25L68.49 2.25L68.49 2.25Q69.03 1.85 69.70 1.59L69.70 1.59L69.70 1.59Q70.36 1.33 71.13 1.20L71.13 1.20L71.13 1.20Q71.89 1.07 72.73 1.07L72.73 1.07L72.73 1.07Q73.99 1.07 75.08 1.36L75.08 1.36L75.08 1.36Q76.17 1.65 76.97 2.25L76.97 2.25L76.97 2.25Q77.77 2.84 78.22 3.76L78.22 3.76L78.22 3.76Q78.68 4.68 78.68 5.95ZM77.80 5.95L77.80 5.95L77.80 5.95Q77.80 4.95 77.48 4.18L77.48 4.18L77.48 4.18Q77.15 3.42 76.51 2.90L76.51 2.90L76.51 2.90Q75.88 2.37 74.93 2.10L74.93 2.10L74.93 2.10Q73.99 1.83 72.73 1.83L72.73 1.83L72.73 1.83Q71.48 1.83 70.53 2.11L70.53 2.11L70.53 2.11Q69.58 2.38 68.93 2.90L68.93 2.90L68.93 2.90Q68.29 3.42 67.96 4.19L67.96 4.19L67.96 4.19Q67.63 4.96 67.63 5.95L67.63 5.95L67.63 5.95Q67.63 6.95 67.96 7.71L67.96 7.71L67.96 7.71Q68.29 8.48 68.93 9.00L68.93 9.00L68.93 9.00Q69.58 9.52 70.53 9.79L70.53 9.79L70.53 9.79Q71.48 10.06 72.73 10.06L72.73 10.06L72.73 10.06Q73.99 10.06 74.93 9.79L74.93 9.79L74.93 9.79Q75.88 9.52 76.51 9.00L76.51 9.00L76.51 9.00Q77.15 8.48 77.48 7.71L77.48 7.71L77.48 7.71Q77.80 6.95 77.80 5.95Z"></path></g><defs data-v-423bf9ae=""><linearGradient data-v-423bf9ae="" gradientTransform="rotate(25)" id="6871bb2d-af26-4019-b036-741952657922" x1="0%" y1="0%" x2="100%" y2="0%"><stop data-v-423bf9ae="" offset="0%" style="stop-color: rgb(39, 109, 142); stop-opacity: 1;"></stop><stop data-v-423bf9ae="" offset="100%" style="stop-color: rgb(221, 223, 212); stop-opacity: 1;"></stop></linearGradient></defs><g data-v-423bf9ae="" id="29b9622b-743c-4b50-b3af-0ce7105fa03b" transform="matrix(1.0868111848831177,0,0,1.0868111848831177,-13.255263328552246,-0.23894432187080383)" stroke="none" fill="url(#6871bb2d-af26-4019-b036-741952657922)"><g clip-rule="evenodd"><path d="M12.983 10.59l17.018 88.223-5.872-59.049 29.021-1.892-.054-9.883L64.549 1 53.622 18.977z"></path><path d="M59.389 54.548l5.16-53.541-8.74 39.716-19.612 1.045 1.57 20.462-7.766 36.583 12.057-39.899z"></path><path d="M62.8 67.182l.549-10.453-15.979 3.755-.032 11.797-17.337 26.532 21.68-27.616zM65.711 62.394l14.841-4.731 1.509-12.532-15.899 2.095zM72.07 44.502l10.988-1.417 1.581-10.278-8.079-.373L64.549 1l8.43 30.967z"></path><path d="M87.413 31.294l1.256-9.506-9.544-2.694L64.549 1l14.483 22.437-.422 7z"></path></g></g><!----><g data-v-423bf9ae="" id="03100638-f422-422a-9c41-a276abcd5292" fill="#242E31" transform="matrix(0.8297703862190247,0,0,0.8297703862190247,101.04493713378906,56.979637145996094)"><path d="M7.76 4.42L2.16 4.42L2.16 7.99L6.59 7.99L6.59 8.65L2.16 8.65L2.16 13.02L1.46 13.02L1.46 3.78L7.76 3.78L7.76 4.42ZM20.06 3.64L20.06 3.64Q21.36 3.64 22.32 4.22L22.32 4.22L22.32 4.22Q23.28 4.80 23.80 5.87L23.80 5.87L23.80 5.87Q24.32 6.94 24.32 8.40L24.32 8.40L24.32 8.40Q24.32 9.86 23.80 10.93L23.80 10.93L23.80 10.93Q23.28 12.00 22.32 12.58L22.32 12.58L22.32 12.58Q21.36 13.16 20.06 13.16L20.06 13.16L20.06 13.16Q18.76 13.16 17.80 12.58L17.80 12.58L17.80 12.58Q16.84 12.00 16.32 10.93L16.32 10.93L16.32 10.93Q15.81 9.86 15.81 8.40L15.81 8.40L15.81 8.40Q15.81 6.94 16.32 5.87L16.32 5.87L16.32 5.87Q16.84 4.80 17.80 4.22L17.80 4.22L17.80 4.22Q18.76 3.64 20.06 3.64L20.06 3.64ZM20.06 4.28L20.06 4.28Q18.98 4.28 18.19 4.78L18.19 4.78L18.19 4.78Q17.40 5.28 16.97 6.21L16.97 6.21L16.97 6.21Q16.55 7.14 16.55 8.40L16.55 8.40L16.55 8.40Q16.55 9.66 16.97 10.59L16.97 10.59L16.97 10.59Q17.40 11.52 18.19 12.02L18.19 12.02L18.19 12.02Q18.98 12.52 20.06 12.52L20.06 12.52L20.06 12.52Q21.14 12.52 21.94 12.02L21.94 12.02L21.94 12.02Q22.74 11.52 23.16 10.59L23.16 10.59L23.16 10.59Q23.59 9.66 23.59 8.40L23.59 8.40L23.59 8.40Q23.59 7.14 23.16 6.21L23.16 6.21L23.16 6.21Q22.74 5.28 21.94 4.78L21.94 4.78L21.94 4.78Q21.14 4.28 20.06 4.28L20.06 4.28ZM40.59 13.02L39.76 13.02L37.11 9.02L37.07 9.02L34.34 9.02L34.34 13.02L33.64 13.02L33.64 3.78L37.07 3.78L37.07 3.78Q38.46 3.78 39.28 4.48L39.28 4.48L39.28 4.48Q40.10 5.18 40.10 6.40L40.10 6.40L40.10 6.40Q40.10 7.41 39.51 8.07L39.51 8.07L39.51 8.07Q38.92 8.74 37.90 8.93L37.90 8.93L40.59 13.02ZM34.34 4.42L34.34 8.36L37.06 8.36L37.06 8.36Q38.18 8.36 38.77 7.85L38.77 7.85L38.77 7.85Q39.37 7.35 39.37 6.40L39.37 6.40L39.37 6.40Q39.37 5.45 38.77 4.93L38.77 4.93L38.77 4.93Q38.18 4.42 37.06 4.42L37.06 4.42L34.34 4.42ZM64.05 3.78L64.05 3.78Q65.49 3.78 66.34 4.50L66.34 4.50L66.34 4.50Q67.19 5.22 67.19 6.48L67.19 6.48L67.19 6.48Q67.19 7.74 66.34 8.47L66.34 8.47L66.34 8.47Q65.49 9.20 64.05 9.20L64.05 9.20L61.68 9.20L61.68 13.02L60.98 13.02L60.98 3.78L64.05 3.78ZM63.97 8.54L63.97 8.54Q65.17 8.54 65.81 8.01L65.81 8.01L65.81 8.01Q66.44 7.48 66.44 6.48L66.44 6.48L66.44 6.48Q66.44 5.50 65.81 4.96L65.81 4.96L65.81 4.96Q65.17 4.42 63.97 4.42L63.97 4.42L61.68 4.42L61.68 8.54L63.97 8.54ZM76.90 12.38L82.74 12.38L82.74 13.02L76.20 13.02L76.20 3.78L82.52 3.78L82.52 4.42L76.90 4.42L76.90 7.99L81.34 7.99L81.34 8.65L76.90 8.65L76.90 12.38ZM95.19 3.64L95.19 3.64Q96.49 3.64 97.45 4.22L97.45 4.22L97.45 4.22Q98.41 4.80 98.92 5.87L98.92 5.87L98.92 5.87Q99.44 6.94 99.44 8.40L99.44 8.40L99.44 8.40Q99.44 9.86 98.92 10.93L98.92 10.93L98.92 10.93Q98.41 12.00 97.45 12.58L97.45 12.58L97.45 12.58Q96.49 13.16 95.19 13.16L95.19 13.16L95.19 13.16Q93.88 13.16 92.92 12.58L92.92 12.58L92.92 12.58Q91.97 12.00 91.45 10.93L91.45 10.93L91.45 10.93Q90.93 9.86 90.93 8.40L90.93 8.40L90.93 8.40Q90.93 6.94 91.45 5.87L91.45 5.87L91.45 5.87Q91.97 4.80 92.92 4.22L92.92 4.22L92.92 4.22Q93.88 3.64 95.19 3.64L95.19 3.64ZM95.19 4.28L95.19 4.28Q94.11 4.28 93.32 4.78L93.32 4.78L93.32 4.78Q92.53 5.28 92.10 6.21L92.10 6.21L92.10 6.21Q91.67 7.14 91.67 8.40L91.67 8.40L91.67 8.40Q91.67 9.66 92.10 10.59L92.10 10.59L92.10 10.59Q92.53 11.52 93.32 12.02L93.32 12.02L93.32 12.02Q94.11 12.52 95.19 12.52L95.19 12.52L95.19 12.52Q96.26 12.52 97.06 12.02L97.06 12.02L97.06 12.02Q97.86 11.52 98.29 10.59L98.29 10.59L98.29 10.59Q98.71 9.66 98.71 8.40L98.71 8.40L98.71 8.40Q98.71 7.14 98.29 6.21L98.29 6.21L98.29 6.21Q97.86 5.28 97.06 4.78L97.06 4.78L97.06 4.78Q96.26 4.28 95.19 4.28L95.19 4.28ZM111.83 3.78L111.83 3.78Q113.27 3.78 114.12 4.50L114.12 4.50L114.12 4.50Q114.97 5.22 114.97 6.48L114.97 6.48L114.97 6.48Q114.97 7.74 114.12 8.47L114.12 8.47L114.12 8.47Q113.27 9.20 111.83 9.20L111.83 9.20L109.47 9.20L109.47 13.02L108.77 13.02L108.77 3.78L111.83 3.78ZM111.75 8.54L111.75 8.54Q112.95 8.54 113.59 8.01L113.59 8.01L113.59 8.01Q114.23 7.48 114.23 6.48L114.23 6.48L114.23 6.48Q114.23 5.50 113.59 4.96L113.59 4.96L113.59 4.96Q112.95 4.42 111.75 4.42L111.75 4.42L109.47 4.42L109.47 8.54L111.75 8.54ZM124.68 12.38L130.23 12.38L130.23 13.02L123.98 13.02L123.98 3.78L124.68 3.78L124.68 12.38ZM139.69 12.38L145.53 12.38L145.53 13.02L138.99 13.02L138.99 3.78L145.31 3.78L145.31 4.42L139.69 4.42L139.69 7.99L144.13 7.99L144.13 8.65L139.69 8.65L139.69 12.38ZM170.52 6.54L168.66 13.02L167.79 13.02L164.91 3.78L165.66 3.78L168.22 12.45L170.65 3.78L171.46 3.78L173.88 12.46L176.47 3.78L177.18 3.78L174.30 13.02L173.43 13.02L171.57 6.54L171.05 4.54L171.04 4.54L170.52 6.54ZM186.76 3.78L186.76 13.02L186.06 13.02L186.06 3.78L186.76 3.78ZM202.97 3.78L202.97 4.42L199.60 4.42L199.60 13.02L198.90 13.02L198.90 4.42L195.52 4.42L195.52 3.78L202.97 3.78ZM218.15 3.78L218.85 3.78L218.85 13.02L218.15 13.02L218.15 8.65L212.44 8.65L212.44 13.02L211.74 13.02L211.74 3.78L212.44 3.78L212.44 7.99L218.15 7.99L218.15 3.78ZM245.99 13.02L244.83 10.12L240.41 10.12L239.26 13.02L238.52 13.02L242.21 3.78L243.04 3.78L246.74 13.02L245.99 13.02ZM240.67 9.48L244.58 9.48L242.97 5.45L242.63 4.47L242.62 4.47L242.28 5.42L240.67 9.48ZM262.22 3.78L262.22 9.65L262.22 9.65Q262.22 11.35 261.30 12.26L261.30 12.26L261.30 12.26Q260.37 13.16 258.66 13.16L258.66 13.16L258.66 13.16Q256.96 13.16 256.02 12.26L256.02 12.26L256.02 12.26Q255.09 11.35 255.09 9.65L255.09 9.65L255.09 3.78L255.79 3.78L255.79 9.51L255.79 9.51Q255.79 10.99 256.52 11.75L256.52 11.75L256.52 11.75Q257.25 12.52 258.66 12.52L258.66 12.52L258.66 12.52Q260.06 12.52 260.79 11.75L260.79 11.75L260.79 11.75Q261.52 10.99 261.52 9.51L261.52 9.51L261.52 3.78L262.22 3.78ZM274.93 3.78L274.93 3.78Q277.14 3.78 278.34 4.95L278.34 4.95L278.34 4.95Q279.54 6.12 279.54 8.33L279.54 8.33L279.54 8.33Q279.54 10.60 278.34 11.81L278.34 11.81L278.34 11.81Q277.14 13.02 274.93 13.02L274.93 13.02L272.02 13.02L272.02 3.78L274.93 3.78ZM274.99 12.38L274.99 12.38Q276.84 12.38 277.82 11.33L277.82 11.33L277.82 11.33Q278.81 10.29 278.81 8.33L278.81 8.33L278.81 8.33Q278.81 6.45 277.82 5.44L277.82 5.44L277.82 5.44Q276.84 4.42 274.99 4.42L274.99 4.42L272.72 4.42L272.72 12.38L274.99 12.38ZM294.92 13.02L293.76 10.12L289.34 10.12L288.19 13.02L287.45 13.02L291.14 3.78L291.97 3.78L295.67 13.02L294.92 13.02ZM289.60 9.48L293.51 9.48L291.90 5.45L291.56 4.47L291.55 4.47L291.21 5.42L289.60 9.48ZM311.46 10.68L311.46 10.68Q311.07 11.86 310.09 12.51L310.09 12.51L310.09 12.51Q309.12 13.16 307.76 13.16L307.76 13.16L307.76 13.16Q306.50 13.16 305.55 12.58L305.55 12.58L305.55 12.58Q304.60 12.00 304.08 10.92L304.08 10.92L304.08 10.92Q303.56 9.84 303.56 8.40L303.56 8.40L303.56 8.40Q303.56 6.96 304.08 5.88L304.08 5.88L304.08 5.88Q304.60 4.80 305.55 4.22L305.55 4.22L305.55 4.22Q306.50 3.64 307.75 3.64L307.75 3.64L307.75 3.64Q310.52 3.64 311.33 5.92L311.33 5.92L310.65 6.24L310.65 6.24Q310.32 5.26 309.62 4.77L309.62 4.77L309.62 4.77Q308.91 4.28 307.79 4.28L307.79 4.28L307.79 4.28Q306.75 4.28 305.96 4.78L305.96 4.78L305.96 4.78Q305.17 5.28 304.74 6.21L304.74 6.21L304.74 6.21Q304.30 7.14 304.30 8.40L304.30 8.40L304.30 8.40Q304.30 9.66 304.73 10.59L304.73 10.59L304.73 10.59Q305.16 11.52 305.94 12.02L305.94 12.02L305.94 12.02Q306.71 12.52 307.76 12.52L307.76 12.52L307.76 12.52Q308.88 12.52 309.67 11.97L309.67 11.97L309.67 11.97Q310.45 11.42 310.76 10.42L310.76 10.42L311.46 10.68ZM321.22 3.78L321.22 13.02L320.52 13.02L320.52 3.78L321.22 3.78ZM334.80 3.64L334.80 3.64Q336.10 3.64 337.06 4.22L337.06 4.22L337.06 4.22Q338.02 4.80 338.53 5.87L338.53 5.87L338.53 5.87Q339.05 6.94 339.05 8.40L339.05 8.40L339.05 8.40Q339.05 9.86 338.53 10.93L338.53 10.93L338.53 10.93Q338.02 12.00 337.06 12.58L337.06 12.58L337.06 12.58Q336.10 13.16 334.80 13.16L334.80 13.16L334.80 13.16Q333.49 13.16 332.54 12.58L332.54 12.58L332.54 12.58Q331.58 12.00 331.06 10.93L331.06 10.93L331.06 10.93Q330.54 9.86 330.54 8.40L330.54 8.40L330.54 8.40Q330.54 6.94 331.06 5.87L331.06 5.87L331.06 5.87Q331.58 4.80 332.54 4.22L332.54 4.22L332.54 4.22Q333.49 3.64 334.80 3.64L334.80 3.64ZM334.80 4.28L334.80 4.28Q333.72 4.28 332.93 4.78L332.93 4.78L332.93 4.78Q332.14 5.28 331.71 6.21L331.71 6.21L331.71 6.21Q331.28 7.14 331.28 8.40L331.28 8.40L331.28 8.40Q331.28 9.66 331.71 10.59L331.71 10.59L331.71 10.59Q332.14 11.52 332.93 12.02L332.93 12.02L332.93 12.02Q333.72 12.52 334.80 12.52L334.80 12.52L334.80 12.52Q335.87 12.52 336.67 12.02L336.67 12.02L336.67 12.02Q337.47 11.52 337.90 10.59L337.90 10.59L337.90 10.59Q338.32 9.66 338.32 8.40L338.32 8.40L338.32 8.40Q338.32 7.14 337.90 6.21L337.90 6.21L337.90 6.21Q337.47 5.28 336.67 4.78L336.67 4.78L336.67 4.78Q335.87 4.28 334.80 4.28L334.80 4.28ZM355.39 3.78L355.39 9.65L355.39 9.65Q355.39 11.35 354.47 12.26L354.47 12.26L354.47 12.26Q353.54 13.16 351.83 13.16L351.83 13.16L351.83 13.16Q350.13 13.16 349.19 12.26L349.19 12.26L349.19 12.26Q348.26 11.35 348.26 9.65L348.26 9.65L348.26 3.78L348.96 3.78L348.96 9.51L348.96 9.51Q348.96 10.99 349.69 11.75L349.69 11.75L349.69 11.75Q350.42 12.52 351.83 12.52L351.83 12.52L351.83 12.52Q353.23 12.52 353.96 11.75L353.96 11.75L353.96 11.75Q354.69 10.99 354.69 9.51L354.69 9.51L354.69 3.78L355.39 3.78ZM368.05 3.64L368.05 3.64Q370.65 3.64 371.53 5.68L371.53 5.68L370.93 6.17L370.93 6.17Q370.58 5.18 369.89 4.73L369.89 4.73L369.89 4.73Q369.19 4.28 368.06 4.28L368.06 4.28L368.06 4.28Q367.25 4.28 366.65 4.54L366.65 4.54L366.65 4.54Q366.04 4.79 365.73 5.22L365.73 5.22L365.73 5.22Q365.41 5.66 365.41 6.20L365.41 6.20L365.41 6.20Q365.41 6.73 365.68 7.08L365.68 7.08L365.68 7.08Q365.95 7.43 366.58 7.68L366.58 7.68L366.58 7.68Q367.22 7.92 368.34 8.12L368.34 8.12L368.34 8.12Q370.15 8.43 370.90 9.02L370.90 9.02L370.90 9.02Q371.66 9.60 371.66 10.64L371.66 10.64L371.66 10.64Q371.66 11.38 371.22 11.96L371.22 11.96L371.22 11.96Q370.79 12.53 370.00 12.84L370.00 12.84L370.00 12.84Q369.21 13.16 368.19 13.16L368.19 13.16L368.19 13.16Q366.73 13.16 365.73 12.58L365.73 12.58L365.73 12.58Q364.73 12.00 364.36 10.95L364.36 10.95L364.98 10.47L364.98 10.47Q365.26 11.47 366.11 11.99L366.11 11.99L366.11 11.99Q366.95 12.52 368.20 12.52L368.20 12.52L368.20 12.52Q369.40 12.52 370.17 12.03L370.17 12.03L370.17 12.03Q370.93 11.54 370.93 10.68L370.93 10.68L370.93 10.68Q370.93 9.94 370.31 9.51L370.31 9.51L370.31 9.51Q369.68 9.07 368.14 8.81L368.14 8.81L368.14 8.81Q366.84 8.58 366.09 8.26L366.09 8.26L366.09 8.26Q365.33 7.94 365.00 7.46L365.00 7.46L365.00 7.46Q364.67 6.99 364.67 6.27L364.67 6.27L364.67 6.27Q364.67 5.56 365.09 4.96L365.09 4.96L365.09 4.96Q365.50 4.35 366.26 4.00L366.26 4.00L366.26 4.00Q367.02 3.64 368.05 3.64L368.05 3.64ZM395.79 8.50L399.59 8.50L399.59 13.02L399.03 13.02L399.00 11.41L399.00 11.41Q398.62 12.25 397.82 12.71L397.82 12.71L397.82 12.71Q397.01 13.16 395.82 13.16L395.82 13.16L395.82 13.16Q394.56 13.16 393.62 12.58L393.62 12.58L393.62 12.58Q392.67 12.00 392.16 10.92L392.16 10.92L392.16 10.92Q391.65 9.84 391.65 8.40L391.65 8.40L391.65 8.40Q391.65 6.96 392.18 5.88L392.18 5.88L392.18 5.88Q392.70 4.80 393.65 4.22L393.65 4.22L393.65 4.22Q394.60 3.64 395.86 3.64L395.86 3.64L395.86 3.64Q397.28 3.64 398.17 4.20L398.17 4.20L398.17 4.20Q399.07 4.76 399.52 5.91L399.52 5.91L398.87 6.24L398.87 6.24Q398.55 5.28 397.79 4.78L397.79 4.78L397.79 4.78Q397.03 4.28 395.86 4.28L395.86 4.28L395.86 4.28Q394.83 4.28 394.04 4.78L394.04 4.78L394.04 4.78Q393.26 5.28 392.83 6.21L392.83 6.21L392.83 6.21Q392.39 7.14 392.39 8.40L392.39 8.40L392.39 8.40Q392.39 10.32 393.31 11.42L393.31 11.42L393.31 11.42Q394.23 12.52 395.85 12.52L395.85 12.52L395.85 12.52Q396.86 12.52 397.56 12.12L397.56 12.12L397.56 12.12Q398.26 11.72 398.59 11.07L398.59 11.07L398.59 11.07Q398.93 10.42 398.93 9.67L398.93 9.67L398.93 9.16L395.79 9.16L395.79 8.50ZM412.73 3.64L412.73 3.64Q414.04 3.64 415.00 4.22L415.00 4.22L415.00 4.22Q415.95 4.80 416.47 5.87L416.47 5.87L416.47 5.87Q416.99 6.94 416.99 8.40L416.99 8.40L416.99 8.40Q416.99 9.86 416.47 10.93L416.47 10.93L416.47 10.93Q415.95 12.00 415.00 12.58L415.00 12.58L415.00 12.58Q414.04 13.16 412.73 13.16L412.73 13.16L412.73 13.16Q411.43 13.16 410.47 12.58L410.47 12.58L410.47 12.58Q409.51 12.00 409.00 10.93L409.00 10.93L409.00 10.93Q408.48 9.86 408.48 8.40L408.48 8.40L408.48 8.40Q408.48 6.94 409.00 5.87L409.00 5.87L409.00 5.87Q409.51 4.80 410.47 4.22L410.47 4.22L410.47 4.22Q411.43 3.64 412.73 3.64L412.73 3.64ZM412.73 4.28L412.73 4.28Q411.66 4.28 410.87 4.78L410.87 4.78L410.87 4.78Q410.07 5.28 409.65 6.21L409.65 6.21L409.65 6.21Q409.22 7.14 409.22 8.40L409.22 8.40L409.22 8.40Q409.22 9.66 409.65 10.59L409.65 10.59L409.65 10.59Q410.07 11.52 410.87 12.02L410.87 12.02L410.87 12.02Q411.66 12.52 412.73 12.52L412.73 12.52L412.73 12.52Q413.81 12.52 414.61 12.02L414.61 12.02L414.61 12.02Q415.41 11.52 415.84 10.59L415.84 10.59L415.84 10.59Q416.26 9.66 416.26 8.40L416.26 8.40L416.26 8.40Q416.26 7.14 415.84 6.21L415.84 6.21L415.84 6.21Q415.41 5.28 414.61 4.78L414.61 4.78L414.61 4.78Q413.81 4.28 412.73 4.28L412.73 4.28ZM432.36 13.02L431.20 10.12L426.78 10.12L425.63 13.02L424.89 13.02L428.58 3.78L429.41 3.78L433.10 13.02L432.36 13.02ZM427.04 9.48L430.95 9.48L429.34 5.45L429.00 4.47L428.99 4.47L428.65 5.42L427.04 9.48ZM442.53 12.38L448.07 12.38L448.07 13.02L441.83 13.02L441.83 3.78L442.53 3.78L442.53 12.38ZM459.62 3.64L459.62 3.64Q462.22 3.64 463.11 5.68L463.11 5.68L462.50 6.17L462.50 6.17Q462.15 5.18 461.46 4.73L461.46 4.73L461.46 4.73Q460.77 4.28 459.63 4.28L459.63 4.28L459.63 4.28Q458.82 4.28 458.22 4.54L458.22 4.54L458.22 4.54Q457.62 4.79 457.30 5.22L457.30 5.22L457.30 5.22Q456.99 5.66 456.99 6.20L456.99 6.20L456.99 6.20Q456.99 6.73 457.25 7.08L457.25 7.08L457.25 7.08Q457.52 7.43 458.16 7.68L458.16 7.68L458.16 7.68Q458.79 7.92 459.91 8.12L459.91 8.12L459.91 8.12Q461.72 8.43 462.48 9.02L462.48 9.02L462.48 9.02Q463.23 9.60 463.23 10.64L463.23 10.64L463.23 10.64Q463.23 11.38 462.80 11.96L462.80 11.96L462.80 11.96Q462.36 12.53 461.57 12.84L461.57 12.84L461.57 12.84Q460.78 13.16 459.76 13.16L459.76 13.16L459.76 13.16Q458.30 13.16 457.30 12.58L457.30 12.58L457.30 12.58Q456.30 12.00 455.94 10.95L455.94 10.95L456.55 10.47L456.55 10.47Q456.83 11.47 457.68 11.99L457.68 11.99L457.68 11.99Q458.53 12.52 459.77 12.52L459.77 12.52L459.77 12.52Q460.98 12.52 461.74 12.03L461.74 12.03L461.74 12.03Q462.50 11.54 462.50 10.68L462.50 10.68L462.50 10.68Q462.50 9.94 461.88 9.51L461.88 9.51L461.88 9.51Q461.26 9.07 459.72 8.81L459.72 8.81L459.72 8.81Q458.42 8.58 457.66 8.26L457.66 8.26L457.66 8.26Q456.90 7.94 456.57 7.46L456.57 7.46L456.57 7.46Q456.25 6.99 456.25 6.27L456.25 6.27L456.25 6.27Q456.25 5.56 456.66 4.96L456.66 4.96L456.66 4.96Q457.07 4.35 457.83 4.00L457.83 4.00L457.83 4.00Q458.60 3.64 459.62 3.64L459.62 3.64Z"></path></g></svg>